<mxfile host="app.diagrams.net" modified="2020-12-03T00:59:26.079Z" agent="5.0 (Windows NT 10.0; Win64; x64) AppleWebKit/537.36 (KHTML, like Gecko) Chrome/86.0.4240.198 Safari/537.36" etag="28igTwreODIJgg7-LghY" version="13.10.6" type="github">
  <diagram id="yNFM99Rtt8g1hcaIN-n1" name="Page-1">
    <mxGraphModel dx="595" dy="762" grid="1" gridSize="10" guides="1" tooltips="1" connect="1" arrows="1" fold="1" page="1" pageScale="1" pageWidth="827" pageHeight="1169" math="0" shadow="0">
      <root>
        <mxCell id="0" />
        <mxCell id="1" parent="0" />
        <mxCell id="WK5UWZd6g4hcFstB4V8U-13" value="SocketConstants" style="swimlane;fontStyle=1;align=center;verticalAlign=top;childLayout=stackLayout;horizontal=1;startSize=26;horizontalStack=0;resizeParent=1;resizeParentMax=0;resizeLast=0;collapsible=1;marginBottom=0;" parent="1" vertex="1">
          <mxGeometry x="960" y="530" width="250" height="104" as="geometry" />
        </mxCell>
        <mxCell id="WK5UWZd6g4hcFstB4V8U-14" value="String CONNECT_UUID" style="text;strokeColor=none;fillColor=none;align=left;verticalAlign=top;spacingLeft=4;spacingRight=4;overflow=hidden;rotatable=0;points=[[0,0.5],[1,0.5]];portConstraint=eastwest;" parent="WK5UWZd6g4hcFstB4V8U-13" vertex="1">
          <mxGeometry y="26" width="250" height="26" as="geometry" />
        </mxCell>
        <mxCell id="WK5UWZd6g4hcFstB4V8U-15" value="String BLUETOOTH_PAIR_PASSWORD" style="text;strokeColor=none;fillColor=none;align=left;verticalAlign=top;spacingLeft=4;spacingRight=4;overflow=hidden;rotatable=0;points=[[0,0.5],[1,0.5]];portConstraint=eastwest;" parent="WK5UWZd6g4hcFstB4V8U-13" vertex="1">
          <mxGeometry y="52" width="250" height="26" as="geometry" />
        </mxCell>
        <mxCell id="WK5UWZd6g4hcFstB4V8U-16" value="String DEBUG_TAG" style="text;strokeColor=none;fillColor=none;align=left;verticalAlign=top;spacingLeft=4;spacingRight=4;overflow=hidden;rotatable=0;points=[[0,0.5],[1,0.5]];portConstraint=eastwest;" parent="WK5UWZd6g4hcFstB4V8U-13" vertex="1">
          <mxGeometry y="78" width="250" height="26" as="geometry" />
        </mxCell>
        <mxCell id="WK5UWZd6g4hcFstB4V8U-17" style="edgeStyle=orthogonalEdgeStyle;rounded=0;orthogonalLoop=1;jettySize=auto;html=1;" parent="1" source="WK5UWZd6g4hcFstB4V8U-18" target="WK5UWZd6g4hcFstB4V8U-13" edge="1">
          <mxGeometry relative="1" as="geometry">
            <mxPoint x="1211" y="550" as="targetPoint" />
          </mxGeometry>
        </mxCell>
        <mxCell id="WK5UWZd6g4hcFstB4V8U-18" value="socket连接配置类" style="shape=note2;boundedLbl=1;whiteSpace=wrap;html=1;size=25;verticalAlign=top;align=center;" parent="1" vertex="1">
          <mxGeometry x="1025" y="450" width="120" height="60" as="geometry" />
        </mxCell>
        <mxCell id="WK5UWZd6g4hcFstB4V8U-19" value="SocketInfo" style="swimlane;fontStyle=1;align=center;verticalAlign=top;childLayout=stackLayout;horizontal=1;startSize=26;horizontalStack=0;resizeParent=1;resizeParentMax=0;resizeLast=0;collapsible=1;marginBottom=0;" parent="1" vertex="1">
          <mxGeometry x="1240" y="530" width="250" height="104" as="geometry" />
        </mxCell>
        <mxCell id="WK5UWZd6g4hcFstB4V8U-20" value="int code" style="text;strokeColor=none;fillColor=none;align=left;verticalAlign=top;spacingLeft=4;spacingRight=4;overflow=hidden;rotatable=0;points=[[0,0.5],[1,0.5]];portConstraint=eastwest;" parent="WK5UWZd6g4hcFstB4V8U-19" vertex="1">
          <mxGeometry y="26" width="250" height="26" as="geometry" />
        </mxCell>
        <mxCell id="WK5UWZd6g4hcFstB4V8U-21" value="String msg" style="text;strokeColor=none;fillColor=none;align=left;verticalAlign=top;spacingLeft=4;spacingRight=4;overflow=hidden;rotatable=0;points=[[0,0.5],[1,0.5]];portConstraint=eastwest;" parent="WK5UWZd6g4hcFstB4V8U-19" vertex="1">
          <mxGeometry y="52" width="250" height="26" as="geometry" />
        </mxCell>
        <mxCell id="WK5UWZd6g4hcFstB4V8U-22" value="String data" style="text;strokeColor=none;fillColor=none;align=left;verticalAlign=top;spacingLeft=4;spacingRight=4;overflow=hidden;rotatable=0;points=[[0,0.5],[1,0.5]];portConstraint=eastwest;" parent="WK5UWZd6g4hcFstB4V8U-19" vertex="1">
          <mxGeometry y="78" width="250" height="26" as="geometry" />
        </mxCell>
        <mxCell id="WK5UWZd6g4hcFstB4V8U-23" style="edgeStyle=orthogonalEdgeStyle;rounded=0;orthogonalLoop=1;jettySize=auto;html=1;" parent="1" source="WK5UWZd6g4hcFstB4V8U-24" target="WK5UWZd6g4hcFstB4V8U-19" edge="1">
          <mxGeometry relative="1" as="geometry" />
        </mxCell>
        <mxCell id="WK5UWZd6g4hcFstB4V8U-24" value="蓝牙通讯信息规范" style="shape=note2;boundedLbl=1;whiteSpace=wrap;html=1;size=25;verticalAlign=top;align=center;" parent="1" vertex="1">
          <mxGeometry x="1305" y="450" width="120" height="60" as="geometry" />
        </mxCell>
      </root>
    </mxGraphModel>
  </diagram>
</mxfile>
